# xmcd CD database file generated by OrangeCD 5.2
#
# Track frame offsets:
#	150
#	10321
#	23161
#	35316
#	47952
#	61836
#	74295
#	87058
#	99446
#	113682
#	128123
#	140885
#	152882
#	163335
#	174137
#	184639
#	196144
#	207719
#	220331
#	232432
#
# Disc length: 3264 seconds
#
# Revision: 0
# Processed by: cddbd v1.5.1PL0 Copyright (c) Steve Scherf et al.
# Submitted via: OrangeCD 5.2
#
DISCID=200cbe14
DTITLE=Jimmy Reed - The Masters
DYEAR=1997
DGENRE=Blues/Jimmy Reed
TTITLE0=Ain't That Loving You Baby
TTITLE1=You Got Me Dizzy
TTITLE2=Honest I Do
TTITLE3=I Found My Baby
TTITLE4=You Don't Have To Go
TTITLE5=I Don't Go For That
TTITLE6=Can't Stand To See You Go
TTITLE7=I Love You Baby
TTITLE8=Little Rain
TTITLE9=Honey, Where You Going
TTITLE10=The Sun Is Shining
TTITLE11=I'm Gonna Get My Baby
TTITLE12=I Told You Baby
TTITLE13=Baby What You Want Me To Do
TTITLE14=Found Love
TTITLE15=Hush Hush
TTITLE16=Close Together
TTITLE17=Big Boss Man
TTITLE18=Bright Lights Big City
TTITLE19=Jimmy's Boogie
EXTD=
EXTT0=
EXTT1=
EXTT2=
EXTT3=
EXTT4=
EXTT5=
EXTT6=
EXTT7=
EXTT8=
EXTT9=
EXTT10=
EXTT11=
EXTT12=
EXTT13=
EXTT14=
EXTT15=
EXTT16=
EXTT17=
EXTT18=
EXTT19=
PLAYORDER=
